<?xml version="1.0" encoding="UTF-8" standalone="no"?>
<!-- Created with Inkscape (http://www.inkscape.org/) -->

<svg
   width="4000mm"
   height="4000mm"
   viewBox="0 0 3999.9999 4000"
   version="1.1"
   id="svg1"
   xml:space="preserve"
   inkscape:export-filename="bitmap.png"
   inkscape:export-xdpi="25.4"
   inkscape:export-ydpi="25.4"
   inkscape:version="1.3.2 (091e20e, 2023-11-25)"
   sodipodi:docname="filled_version.svg"
   xmlns:inkscape="http://www.inkscape.org/namespaces/inkscape"
   xmlns:sodipodi="http://sodipodi.sourceforge.net/DTD/sodipodi-0.dtd"
   xmlns="http://www.w3.org/2000/svg"
   xmlns:svg="http://www.w3.org/2000/svg"><sodipodi:namedview
     id="namedview1"
     pagecolor="#ffffff"
     bordercolor="#999999"
     borderopacity="1"
     inkscape:showpageshadow="2"
     inkscape:pageopacity="0"
     inkscape:pagecheckerboard="0"
     inkscape:deskcolor="#d1d1d1"
     inkscape:document-units="mm"
     inkscape:zoom="0.049132244"
     inkscape:cx="8171.823"
     inkscape:cy="10258.029"
     inkscape:window-width="1584"
     inkscape:window-height="759"
     inkscape:window-x="0"
     inkscape:window-y="38"
     inkscape:window-maximized="0"
     inkscape:current-layer="layer1" /><defs
     id="defs1" /><g
     inkscape:label="Layer 1"
     inkscape:groupmode="layer"
     id="layer1"
     transform="translate(-1294.3446,-5238.5553)"><path
       id="path0"
       d="m 4832.2369,8271.966 c -2.9497,1.8114 -2.6469,-1.4788 -4.8896,48.2247 -0.4916,10.4963 -1.3614,28.9855 -1.9666,41.086 -0.6051,12.1081 -1.7397,36.9746 -2.5338,55.2679 -1.7773,39.8693 -3.1389,68.0819 -3.9025,80.7002 -0.4917,8.2666 -1.2103,24.1308 -3.0255,68.4738 -0.378,7.2685 -0.7939,19.3692 -1.0967,26.9001 -0.3781,7.531 -0.7564,16.5593 -1.0211,20.053 -0.3781,3.5124 -0.9075,16.0416 -1.4369,27.876 -0.5294,11.8384 -1.4372,30.7673 -1.9666,42.0656 -0.5672,11.295 -1.4747,30.4494 -2.0043,42.55 -0.5294,12.108 -1.437,29.9318 -2.0042,39.6182 -0.5673,9.6826 -1.4748,29.2771 -2.042,43.5259 -1.2481,32.3199 -2.7985,64.9134 -3.9218,82.1678 -0.4539,7.2683 -0.9075,17.9421 -0.9454,23.7242 v 10.5146 h -21.9337 c -12.0562,0 -22.6411,0.3697 -23.5147,0.5915 -1.3615,0.5177 -1.5882,3.7193 -1.5882,25.8759 v 25.2846 l -6.7541,0.3696 -6.7504,0.3698 -0.3781,6.115 -0.3781,6.1113 h -7.4538 -7.4536 v -28.3679 -28.3639 h -8.5052 -8.5051 v -8.3147 -8.3149 h -4.0047 -4.0009 v -9.5385 c -0.8698,-64.0116 -1.6262,-107.1013 -2.1935,-123.986 -0.3783,-11.2982 -1.1722,-57.5156 -1.7394,-102.709 -0.5675,-45.1931 -1.5128,-109.4599 -2.0802,-142.815 -0.5672,-33.359 -1.248,-76.1638 -1.5503,-95.1299 l -0.4917,-34.4829 h -10.4262 -10.4262 l -0.029,20.2973 c 0,11.1612 -0.3782,24.7002 -0.5672,30.0793 -0.5295,10.3113 -2.8364,168.6911 -4.402,304.7074 -0.5294,44.391 -1.2101,97.0966 -1.5882,117.1387 l -0.6809,36.4386 h -5.3924 -5.3815 l -0.031,-6.6029 c -0.029,-3.6232 -0.378,-11.4464 -0.4913,-17.3655 -0.4917,-12.3446 -1.891,-99.3039 -2.9877,-184.3889 -0.3781,-32.0057 -1.0967,-87.4697 -1.5881,-123.25 -0.4539,-35.7732 -1.3238,-104.6686 -1.929,-153.0857 -0.567,-48.4207 -1.3234,-91.2258 -1.6259,-95.13 l -0.5673,-7.091 h -10.2561 -10.2557 l -0.6809,55.5121 c -0.378,30.5268 -1.0965,85.4433 -1.626,122.0299 -0.5294,36.5828 -0.9833,80.6003 -1.0591,97.8178 0,41.6328 -2.7226,252.334 -3.479,285.1419 l -0.6051,25.9206 -6.2927,0.3695 -6.2966,0.3697 -0.643,-40.3906 c -0.3781,-22.2158 -1.0964,-64.5996 -1.6637,-94.1909 -2.3826,-123.6236 -4.6137,-251.532 -4.8634,-279.5152 v -12.474 h -9.5034 -9.507 v 27.6359 c 0,15.1985 -0.4159,41.0633 -0.9834,57.4677 -0.5294,16.4149 -1.4747,74.7329 -2.042,129.6089 -0.5672,54.8759 -1.2481,112.1034 -1.5128,127.1654 -0.3781,15.0656 -0.7563,44.0102 -1.0965,64.3181 l -0.605,36.9269 h -11.3754 c -13.9017,0 -12.5894,-3.2907 -12.2073,30.5747 l 0.3782,26.1572 h -4.2546 c -4.19,0 -4.2505,0 -4.2505,-3.4386 v -3.4382 h -6.5044 c -4.5229,0 -6.512,-0.3697 -6.5234,-1.2202 0,-1.8854 -3.8235,-33.1923 -5.4118,-44.7532 -0.7942,-5.6526 -2.1176,-16.208 -3.0252,-23.4765 -0.8697,-7.2683 -2.2312,-17.8238 -3.0631,-23.4766 -0.7943,-5.6452 -1.9666,-14.8883 -2.5338,-20.5409 -0.605,-5.6455 -1.2859,-11.1725 -1.5883,-12.2673 -0.3781,-1.1087 -1.0968,-7.0354 -1.8909,-13.2059 -0.7564,-6.1629 -2.5338,-20.4561 -3.9218,-31.7506 -1.3992,-11.2982 -2.8361,-22.7447 -3.1385,-25.436 -0.3781,-2.6987 -1.664,-12.3742 -2.95,-21.5171 -1.2858,-9.1466 -2.685,-20.4855 -3.0631,-25.1883 -0.8698,-10.5773 -3.7437,-12.5923 -4.8823,-3.4384 -0.3781,2.8469 -1.0587,7.1245 -1.6259,9.5386 -0.5295,2.4403 -2.3071,14.3115 -3.9517,26.4119 -1.6643,12.1082 -3.4415,24.2089 -3.9823,26.9004 -0.5294,2.6986 -1.2857,8.0707 -1.6263,11.9525 -1.3992,15.162 -2.1554,8.9029 -4.4017,-36.409 -0.5293,-10.7583 -1.1723,-21.9791 -1.4369,-24.9442 -0.4163,-4.7434 -1.0591,-17.8312 -3.1012,-62.1148 -0.3781,-6.4552 -0.7186,-15.0324 -0.9834,-19.0735 -0.7563,-12.326 -2.3444,-41.8547 -2.9872,-54.78 -0.3782,-6.7175 -0.9834,-17.2912 -1.4751,-23.4763 -0.4915,-6.1817 -1.1723,-17.8497 -1.5126,-25.9204 -0.6051,-14.5148 -1.7774,-37.6328 -3.4791,-67.0063 -0.4539,-8.3332 -0.9075,-17.0287 -0.9456,-19.3209 v -4.1557 h -14.0074 -14.0073 v -28.8556 -28.8559 h 7.484 c 8.9551,0 8.7548,0.3698 8.3159,-14.1856 l -0.3781,-9.7828 -7.7526,-0.3697 -7.756,-0.3697 v -11.2095 -11.2096 h -19.5099 -19.5133 v 11.2464 11.2504 h -6.5047 -6.5009 v 12.2263 12.23 h 6.5009 6.5047 v 27.8761 27.8798 h -14.0379 c -10.3467,0 -14.1472,0.3697 -14.4461,1.2202 -0.3781,0.6654 -0.9075,11.3465 -1.5127,23.7205 -0.6049,12.3743 -1.2477,24.2564 -1.4747,26.4084 -0.3781,2.1443 -0.6428,10.5181 -0.9833,18.5888 -2.0421,48.4098 -2.6849,61.7008 -3.5547,70.9178 -0.5294,5.6529 -1.2103,15.3356 -1.475,21.5207 -0.3781,6.1816 -1.1723,23.3583 -1.9663,38.1468 -0.7942,14.8032 -1.9667,37.4663 -2.6095,50.3767 -0.6429,12.914 -1.2858,25.24 -1.5128,27.3916 0,2.1442 -0.794,13.8199 -1.3612,25.9203 -1.5126,31.4105 -2.1556,43.6777 -2.6849,50.3766 -0.3782,3.2168 -0.8699,14.6737 -1.3995,25.4324 -0.5294,10.7624 -1.3992,25.9535 -1.9664,33.7508 -0.5294,7.8046 -1.1345,17.8125 -1.2857,22.253 l -0.3782,8.0595 h -23.265 -23.2648 v 3.4383 c 0,3.1424 -0.3783,3.4385 -2.9877,3.4385 h -2.9874 v -14.674 -14.6736 h -11.0048 -11.0085 v 21.0329 21.029 h -10.4867 c -12.147,0 -12.2941,0 -11.1938,10.5957 0.3783,3.6232 0.3783,4.8212 -0.378,3.4385 -0.4917,-1.146 -1.3616,-2.3662 -1.9668,-2.7359 -0.7184,-0.4439 -1.0587,-8.2002 -1.0587,-23.0885 v -22.4375 h -10.309 c -6.7919,0 -10.7248,-0.4066 -11.5265,-1.1833 -0.9832,-0.9611 -1.6263,-0.9611 -3.1766,0 -1.1346,0.7025 -5.4912,1.1833 -10.4828,1.1833 h -8.5165 v -29.8652 -29.8651 l -3.5169,-2.9947 -3.5169,-3.0316 v -31.6841 -31.6917 h -12.5062 -12.5099 v -25.9499 -25.9424 l -15.7583,0.3697 -15.7584,0.3696 -0.3779,19.321 -0.3781,19.3173 h -6.9849 -6.9848 v 5.3833 5.3792 h -7.0037 -7.0037 v -11.2503 -11.2504 h -17.01 -17.0102 v 12.2299 12.2264 h -4.0008 -4.0011 v -13.2355 -13.2246 l -14.7599,0.3697 -14.7565,0.3697 -0.3781,11.9862 -0.3781,11.982 h -6.4704 -6.4743 v 11.7385 11.7381 h -17.01 -17.01 v 34.2351 34.2391 h -16.0119 -16.0076 v 12.714 12.7184 h -13.5081 -13.5086 v 10.0263 10.0264 l -17.9403,18.0936 -17.9405,18.0975 -0.028,24.2122 -0.029,24.2085 h -2.9875 -2.9874 v -30.3234 c 0,-23.7688 -0.3783,-30.3236 -1.2481,-30.3236 -0.7186,0 -1.7019,-0.9614 -2.269,-2.1443 -0.643,-1.4049 -3.0631,-2.8469 -6.9925,-4.1558 l -6.0052,-2.0334 v -8.9024 -8.8991 l 6.8561,-1.5895 c 15.4861,-3.5495 11.1637,-10.0489 -8.5655,-12.8845 l -4.7119,-0.7025 -0.3783,-7.494 -0.3781,-7.4939 -4.7535,-2.4402 -4.7423,-2.4401 v -21.765 -21.7645 h -7.0036 -7.0077 v 20.1011 20.0899 l -3.2521,-0.5544 c -5.5138,-0.9614 -17.7815,-2.5882 -28.2683,-3.786 l -10.0063,-1.1093 v -39.3701 -39.3741 h 9.7568 9.7568 v -7.3352 -7.3348 h -5.7559 -5.7518 l 0.3783,-26.4123 0.3781,-26.4119 h -4.281 -4.2846 v -23.4765 -23.4766 h 4.7535 4.7538 v -7.3351 -7.3386 h -4.7538 -4.7535 v -49.6408 -49.6449 l 4.504,-0.4803 4.5041,-0.4808 0.3781,-7.0946 0.3783,-7.0913 h -4.803 -4.7951 l 0.3781,-58.758 0.3783,-58.7615 h 2.2312 c 5.7141,0.4438 5.7328,0.4066 5.7328,-6.8877 v -6.8471 h -4.2505 -4.2543 v -5.135 -5.1354 l -11.6363,-0.3698 -11.6478,-0.3697 -0.6806,3.4754 c -0.3781,1.9224 -0.3781,4.3625 0,5.4088 0.6052,1.8486 0,1.9223 -13.9468,1.9223 h -14.5785 v 6.8472 6.8472 h 3.5171 3.5168 v 25.3546 c 0,13.9377 0.3781,26.0496 0.605,26.8999 0.5295,1.3681 -1.3233,1.5526 -16.5069,1.5526 h -17.1235 v 190.6114 190.6111 h -51.0263 -51.0304 v -16.2968 c 0,-15.9641 0,-16.2745 2.0422,-15.7569 1.8908,0.4807 2.0421,0 1.7397,-4.2553 -0.3781,-3.8451 -0.6429,-4.7434 -2.042,-4.6361 -1.6263,0 -1.7399,-1.7748 -1.7399,-27.0372 0,-25.2769 0,-27.166 1.7399,-27.0368 1.4369,0 1.7395,-0.6653 1.7395,-4.2663 0,-3.5862 -0.3781,-4.3737 -1.7395,-4.2628 -1.2104,0 -1.7399,-0.5916 -1.7399,-2.2183 0,-2.2181 -0.3781,-2.329 -6.5044,-2.329 -6.1832,0 -6.5044,0 -6.5044,2.329 0,2.1814 -0.3782,2.2924 -4.4399,1.8118 -7.6351,-0.8505 -9.5674,0 -9.5674,4.7543 0,3.1794 0.4159,4.1001 2.004,4.4994 1.8532,0.4805 2.0043,1.331 2.0043,11.8973 v 11.3759 h -7.7561 -7.7524 l -0.3782,36.2316 -0.3781,36.2316 -19.752,1.2939 c -10.8646,0.7022 -22.0432,1.4789 -24.8343,1.7376 -4.1825,0.4066 -5.0941,0.3698 -5.0941,-1.0723 0,-0.9609 0.8699,-1.5526 2.3449,-1.5526 2.1178,0 2.3445,-0.4066 2.3445,-4.8912 0,-4.4218 -0.3781,-4.8912 -2.2687,-4.8912 h -2.2693 v -25.4324 -25.4323 h 2.2693 c 2.042,0 2.2687,-0.4807 2.2687,-5.0097 0,-4.4993 -0.3781,-4.9468 -1.9664,-4.4993 -1.9285,0.5175 -1.9666,-0.3698 -2.2691,-29.7173 l -0.3781,-30.2239 h 2.2691 c 2.0042,0 2.2689,-0.4803 2.2689,-4.4031 0,-4.0299 -0.3781,-4.4034 -2.4581,-4.4034 -2.2312,0 -2.4204,-0.3696 -1.8907,-2.9206 l 0.6049,-2.9206 h -7.7562 -7.7523 l 0.6048,2.9206 0.6051,2.9206 h -7.9831 -7.9754 v 4.4034 c 0,3.745 0.3779,4.4031 2.0041,4.4031 1.8908,0 2.0043,0.6657 2.0043,13.2059 v 13.2025 h -9.027 -9.0152 l 0.3781,55.7376 0.378,55.7299 -4.5002,0.6654 c -19.9936,2.921 -27.3681,7.6789 -26.8574,17.343 l 0.3781,6.3666 -7.0037,1.6267 c -18.3791,4.3146 -18.5606,8.7067 -0.4917,12.6072 l 7.5027,1.6265 v 8.1671 8.1593 l -5.0522,0.5916 c -2.7607,0.3698 -7.5821,1.405 -10.6757,2.4031 -5.4645,1.7746 -5.6423,1.7746 -6.115,0 -0.4159,-1.5527 -1.5126,-1.8114 -7.8319,-1.8114 h -7.3441 v -13.9383 -13.938 l -3.5171,-0.4803 -3.5167,-0.4808 v -13.4501 -13.4498 h 5.801 5.8127 l -0.3783,-4.6474 -0.3781,-4.6438 -5.5026,-0.3697 -5.5023,-0.3694 0.3783,-16.589 0.3782,-16.5926 h -5.2945 -5.3017 l 0.3781,-8.8029 0.3781,-8.8026 h -81.6468 -81.6467 v -7.3349 -7.3388 h -6.5045 -6.5044 v -4.3997 -4.4031 h -14.0075 -14.0073 v 4.3441 4.3514 l -4.2509,0.3697 -4.2542,0.3698 v 7.0946 7.091 h -13.758 -13.7577 v 8.8027 8.8028 h -7.0036 -7.0037 v 16.6295 16.6297 h -4.0047 -4.0013 v 4.8913 4.8913 h 4.0013 4.0047 v 13.6273 c 0,13.3909 0,13.6351 -2.2691,13.9381 -1.3992,0.3698 -2.269,0.9983 -2.269,2.1075 0,1.6267 -1.2858,1.8115 -16.5107,1.9595 h -16.4998 l -0.3782,6.6031 c -0.3781,6.2886 -0.4159,6.6029 -2.7604,6.6029 h -2.4582 v -43.2856 c 0.029,-23.8093 0.032,-44.2727 0.029,-45.4856 -0.029,-1.8483 -0.5671,-2.181 -3.5168,-2.181 h -3.5171 v -10.0784 -10.0746 l 3.5171,0.4067 c 8.2252,0.9241 8.5048,0.5545 8.5048,-12.0636 v -11.2281 h -21.5441 -21.5405 l 0.3783,11.4941 0.3781,11.4944 h 3.7438 3.744 v 10.0856 10.0857 l -4.7538,0.3698 -4.7497,0.3697 -0.3781,84.8596 -0.3783,84.8557 h -17.5091 -17.5017 v -5.8673 -5.8712 h -6.4253 c -7.5028,0 -6.5839,1.5159 -11.1031,-18.0972 -1.5126,-6.455 -3.5548,-15.317 -4.6059,-19.698 -2.269,-9.6162 -2.3067,-11.1136 -0.3782,-11.1136 1.21,0 1.5127,-1.5157 1.5127,-7.8268 v -7.823 h -2.9496 c -3.4793,0 -3.7063,-0.5916 -4.5835,-11.2504 -0.3781,-4.3033 -1.021,-9.1467 -1.5127,-10.7584 -0.4917,-1.6267 -1.5884,-12.8363 -2.4959,-24.9443 -0.9077,-12.1004 -1.8153,-23.7723 -2.0044,-25.9241 -2.3824,-23.2398 -3.8838,-122.3887 -2.2691,-148.6823 0.4161,-6.4589 0.9833,-17.6757 1.2859,-24.9444 0.3783,-7.261 0.7942,-15.2985 1.0589,-17.8531 l 0.4916,-4.6365 -4.2922,-1.8483 c -17.0024,-7.3832 -76.6249,-12.8438 -102.3402,-9.3797 -6.6029,0.8874 -14.257,1.8118 -17.01,2.0337 -18.3791,1.5896 -21.5103,2.2921 -38.7435,8.7842 -6.0733,2.2921 -5.82,0.8873 -4.2319,23.484 2.3449,32.8967 1.0592,133.7607 -2.042,159.8365 -0.3781,2.44 -0.6048,6.2701 -0.7183,8.5587 l -0.3782,4.1593 -18.5683,0.028 c -10.2068,0 -19.1315,0.3697 -19.8237,0.7765 -0.983,0.6286 -1.21,16.0417 -0.983,74.8183 l 0.3783,74.0304 h -17.7628 -17.7587 v -10.2704 -10.2708 h -6.3042 -6.2927 l -2.1555,-6.1146 c -1.1724,-3.3644 -5.1357,-14.6926 -8.7964,-25.1886 -11.2166,-32.0943 -16.5184,-54.3878 -22.6939,-95.3737 -2.1556,-14.3967 -0.6805,-104.1289 1.8531,-110.5358 0.416,-1.0723 0,-1.5158 -0.7564,-1.3679 -0.7563,0 -3.8611,-0.8505 -6.8941,-2.1813 -23.0908,-10.2299 -104.6696,-10.3298 -125.4085,0 l -4.8557,2.3659 0.7186,20.2305 c 0.4159,11.1322 0.9075,21.7835 1.1346,23.6615 1.0967,9.3315 0.605,28.4934 -0.9457,36.6827 -1.815,9.701 -4.1936,23.8944 -8.0966,48.4208 -3.1765,19.8755 -5.2411,31.9946 -6.0619,35.215 -0.3782,1.3308 -1.4748,8.3813 -2.4957,15.6495 -2.2692,15.8939 -4.073,23.6801 -7.5865,32.7675 -1.4745,3.7675 -3.5167,9.4905 -4.6022,12.7181 -1.0588,3.2162 -2.3444,6.7508 -2.8739,7.8268 -2.4582,5.3383 -4.8405,10.9949 -5.4909,13.0469 -0.3783,1.257 -1.8154,4.6656 -3.1767,7.5828 l -2.496,5.2906 h -16.2461 -16.2615 l -3.3279,-8.5589 c -1.8528,-4.7062 -3.7437,-9.0467 -4.19,-9.6456 -0.4539,-0.5916 -1.7016,-3.4385 -2.7227,-6.3592 -1.0211,-2.8838 -2.8742,-7.6862 -4.0916,-10.6515 -1.2103,-2.9574 -2.8366,-7.357 -3.6307,-9.7823 -0.7562,-2.4031 -1.8531,-5.2795 -2.3825,-6.3552 -0.5294,-1.0723 -2.3825,-6.359 -4.0805,-11.7384 -1.7394,-5.3828 -3.5167,-10.6623 -3.982,-11.7383 -1.021,-2.329 -4.2621,-13.5091 -7.087,-24.4564 -1.0966,-4.3032 -2.685,-10.4664 -3.5548,-13.694 -2.647,-10.1927 -6.2851,-29.876 -7.8659,-42.5536 -0.8319,-6.7175 -2.0421,-15.0619 -2.6471,-18.5333 -1.4372,-8.0414 -1.4372,-57.9596 0,-70.4815 0.6053,-5.1056 1.3616,-16.7739 1.7018,-25.9204 l 0.6051,-16.6296 -2.3445,-1.1089 c -1.286,-0.5916 -3.744,-1.8486 -5.5025,-2.7359 -21.393,-10.9767 -119.7283,-10.5145 -138.3079,0.6285 l -3.4036,2.0334 0.6809,15.72 c 0.3781,8.6549 1.0964,22.5559 1.6262,30.8892 1.0587,16.9808 1.1722,55.1902 0,58.2035 -0.6051,1.8484 -1.5128,1.9593 -17.4074,1.9593 h -16.7604 v -50.8646 -50.8685 l -11.5076,0.3699 -11.5076,0.3697 v 50.5653 50.5614 l -20.4516,-0.3697 -20.4588,-0.3699 -0.6053,3.2168 c -0.3781,1.7745 -0.4536,12.7918 -0.3781,24.482 l 0.3781,21.2472 -12.0067,0.3697 -12.0068,0.3699 -0.3783,5.3791 -0.3781,5.3829 h -20.3418 -20.3303 l -0.6809,-33.2591 c -0.378,-18.2932 -1.0964,-44.7052 -1.588,-58.6912 -0.5295,-13.9899 -1.3993,-53.6043 -1.9666,-88.039 -0.5672,-34.4311 -1.2858,-64.9138 -1.5883,-67.7382 l -0.5293,-5.1353 h -10.3392 -10.3355 l -0.567,11.9822 c -0.3783,6.592 -0.8322,34.6568 -1.1347,62.3589 -0.5673,51.1383 -2.08,131.7719 -3.0253,161.7148 l -0.5294,16.4631 h -7.3554 -7.3516 l -0.6053,-5.7711 c -0.3781,-3.1796 -0.6048,-14.6146 -0.6048,-25.4362 0,-20.4225 -1.1345,-81.6392 -3.1012,-167.3673 -0.6428,-27.4363 -1.4369,-62.8691 -1.7774,-78.7445 l -0.6428,-28.856 h -10.0063 -10.0062 l -0.643,5.8675 c -0.3781,3.2163 -0.9456,33.6027 -1.286,67.498 -0.3781,33.8949 -1.0587,69.9896 -1.5881,80.2119 -0.5295,10.2189 -1.1723,44.7793 -1.4751,76.785 -0.378,32.0171 -0.794,62.1668 -1.0965,67.0063 l -0.5297,8.8064 h -8.3347 -8.3348 l -0.5675,-16.6296 c -0.3781,-9.1466 -1.0209,-41.5071 -1.6258,-71.8974 -0.5673,-30.3937 -1.248,-59.8855 -1.5127,-65.5384 -0.3782,-5.6566 -0.7186,-17.3837 -1.0967,-26.0794 -0.7186,-18.0972 0,-16.9215 -11.0462,-16.951 -8.2934,0 -8.1458,-0.4067 -8.3352,21.0217 -0.3781,31.5436 -3.5166,175.9926 -3.9402,176.0999 0,0 -1.9666,0 -4.2244,-0.3696 -5.7027,-0.5176 -5.854,0 -5.8616,18.6702 l -0.028,16.3857 h -6.2513 -6.255 l 0.3781,-17.0103 0.3783,-17.0105 -3.5926,-2.8837 -3.5924,-2.8835 -0.3783,-27.292 -0.3781,-27.292 -12.5063,-0.4807 -12.5096,-0.4806 v -22.0088 -22.0087 h -16.0082 -16.0077 v 16.6295 16.6293 l -7.0037,0.4807 -7.0037,0.4806 v 4.5179 4.5177 h -6.7543 -6.7538 V 8799.2113 8788.9 h -17.01 -17.0103 v 10.7585 10.7624 h -4.2543 -4.2505 l 0.3781,-11.2505 0.3781,-11.2501 h -15.07 -15.0662 v 10.7622 c 0,6.5218 -0.3782,10.7586 -1.0211,10.7586 -0.6428,0 -0.9833,-66.0265 -0.9833,-196.1272 v -196.1272 h -22.5125 -22.5122 v 192.0566 c 0,105.626 -0.3782,211.9362 -0.6429,236.2335 l -0.6809,44.1766 h -15.3384 c -11.5759,0 -15.3689,0.3697 -15.4067,1.2199 0,0.6656 0,5.5159 0,10.7586 v 9.5386 h -5.8049 -5.8123 v -14.4297 -14.4262 l -26.2638,-0.3697 -26.2679,-0.3697 v -54.277 -54.2735 h -7.0037 -7.0038 v 54.2918 54.2882 h -28.4267 -28.427 l -0.4917,-10.0266 c -0.9075,-18.8772 -2.7606,-66.7512 -4.2619,-111.2676 -0.832,-24.4749 -1.9288,-55.9519 -2.4583,-69.9418 -0.9833,-26.216 -1.6639,-45.6407 -4.4246,-123.7417 -0.8695,-25.0109 -2.042,-52.3028 -2.5714,-60.6471 -0.5295,-8.3334 -1.437,-32.1018 -2.0421,-52.8204 -0.6051,-20.7186 -1.5128,-47.9995 -2.0421,-60.6473 -0.5294,-12.6476 -1.248,-31.2145 -1.5884,-41.2707 -0.3782,-10.0448 -0.9076,-18.7035 -1.21,-19.221 -0.7187,-1.1464 -27.7842,-3.7492 -28.7559,-2.7728 -0.3783,0.3693 -1.0211,8.2443 -1.4373,17.5388 -0.4158,9.2834 -1.2478,27.0073 -1.8528,39.3813 -3.8046,79.7984 -5.0751,107.3934 -5.5629,120.8066 -0.3781,8.3444 -0.9833,21.9902 -1.5506,30.3236 -0.5295,8.3443 -1.4371,27.0478 -2.0043,41.5738 -2.1554,56.2067 -2.8363,70.888 -3.2899,71.6201 -0.3782,0.4066 -0.7564,10.0081 -1.097,21.3063 -0.378,11.2984 -1.0967,27.144 -1.5883,35.215 -0.5295,8.0707 -1.437,27.2215 -2.0041,42.5536 -0.6051,15.3353 -1.5128,35.7987 -2.042,45.4852 -0.5297,9.6826 -1.3992,28.3938 -1.9289,41.5701 -0.5294,13.1876 -1.2101,27.488 -1.4371,31.7912 -0.3781,4.3072 -0.4916,9.0397 -0.5294,10.5183 v 2.6991 H 1499.4971 1470 l -0.567,2.2182 c -0.3783,1.2199 -0.4163,26.9556 -0.3783,57.2237 l 0.3783,55.02 h -12.2566 -12.2565 v -36.25 -36.2426 l -4.2544,0.3695 -4.2507,0.3697 v 35.947 35.9468 h -16.2612 -16.2575 v 23.4768 23.4763 h -54.5319 -54.5321 v 98.7975 98.7977 h 1969.6265 1969.6301 v -83.3879 -83.392 l 20.5119,0.3696 20.5118,0.3698 v -41.1229 -41.1227 h -26.5173 c -25.844,0 -26.5132,0 -26.5132,-1.9594 0,-1.8855 -0.6806,-1.9595 -22.5163,-1.9595 h -22.5125 v -37.0635 c 0,-32.8967 0,-37.1334 -1.5882,-37.6622 -0.8697,-0.3699 -10.0138,-0.5914 -20.3113,-0.5914 h -18.7308 l 0.4158,-3.4384 c 0.3782,-2.6619 0,-3.4382 -1.21,-3.4382 -1.3994,0 -1.6261,-2.1812 -1.6261,-19.0772 0,-16.304 0.3783,-19.0732 1.5128,-19.0732 1.0586,0 1.5126,-1.0351 1.5126,-3.4381 0,-2.4032 -0.454,-3.4386 -1.5126,-3.4386 -1.2861,0 -1.5128,-3.1054 -1.5128,-22.0087 0,-18.9104 0.3783,-22.0088 1.5128,-22.0088 1.0964,0 1.5126,-1.072 1.5126,-3.9152 0,-2.8098 -0.4162,-3.9117 -1.5126,-3.9117 -0.8322,0 -1.5128,-0.8872 -1.5128,-1.9592 0,-1.6639 -0.6809,-1.9595 -4.5003,-1.9595 -3.8348,0 -4.5042,0.3696 -4.5042,1.9595 0,1.7005 -0.6806,1.9592 -5.003,1.9592 h -5.0031 v 3.4386 c 0,2.1812 0.5673,3.6601 1.5126,4.0222 1.2103,0.4438 1.5127,2.4772 1.5127,9.694 v 9.1427 l -5.2527,0.3697 -5.2527,0.3697 v 24.9443 24.9444 h -20.4136 -20.4024 l 0.5295,-36.9265 0.5295,-36.9266 h -19.6536 -19.6495 v -7.3387 c 0,-6.9542 0,-7.3352 2.231,-7.3352 2.3448,0 2.4584,0 2.5337,-3.4383 0,-5.224 -0.3781,-6.3591 -2.231,-6.3591 -1.8909,0 -1.9667,-0.8873 -2.2312,-29.8355 l -0.3783,-29.8316 h 2.2314 c 2.0041,0 2.2691,-0.4808 2.2691,-4.4036 0,-3.9521 -0.3783,-4.4031 -2.3449,-4.4031 -2.0042,0 -2.269,-0.3698 -1.8909,-2.9207 l 0.4539,-2.9207 h -7.624 -7.616 v 2.9207 2.9207 h -7.5031 -7.503 v 4.0038 c 0,3.1799 0.416,4.1077 2.0044,4.5182 1.8532,0.4803 2.0044,1.3308 2.0044,13.6053 v 13.0877 h -9.0458 -9.0534 l 0.3781,28.8483 0.3783,28.8372 -30.0192,0.3699 -30.0153,0.3697 0.3783,23.192 0.3781,23.2031 -23.1517,0.3693 -23.1551,0.3697 v -3.9113 c 0,-11.0543 -3.1013,-108.1585 -3.9822,-124.2299 -0.5294,-10.2224 -1.437,-33.5549 -2.0045,-51.8444 -0.567,-18.2933 -1.4746,-44.0399 -2.0421,-57.2235 -1.5125,-34.08 -2.6849,-64.4738 -4.4129,-114.9391 -1.3239,-38.3058 -2.4203,-68.3075 -4.1636,-112.0037 -1.0211,-25.325 -3.5549,-90.5676 -4.0994,-105.6147 -0.7564,-20.09 -0.3783,-19.5243 -14.8019,-19.5319 -7.5519,0 -10.6527,0.3697 -12.6571,1.5899 m -442.1026,218.9198 v 9.2945 h -9.5034 -9.507 v -5.7416 c 0,-3.1794 0.3781,-7.1132 0.6049,-8.7768 l 0.6051,-2.9947 8.1418,-0.3698 c 4.474,0 8.475,-0.4066 8.887,-0.5175 0.4162,0 0.7564,3.989 0.7564,9.0948 m 56.8239,1.2201 0.3783,8.0706 h -9.0461 -9.0458 v -8.3553 -8.3516 l 8.7546,0.3696 8.7546,0.3694 0.3783,8.071 m -698.6904,20.297 v 26.8999 h -3.793 -3.8005 l 0.3781,7.0913 0.3783,7.0948 3.517,0.3696 3.5168,0.3697 v 6.3775 6.3847 h -11.1145 -11.1067 v -40.8417 -40.838 h 11.2544 11.2579 v 26.8999 m 641.8669,5.8895 c 0,2.9209 -1.2858,7.3831 -3.7063,13.0102 l -3.7061,8.5771 -4.2807,-12.2743 c -2.3448,-6.7396 -4.2922,-12.5997 -4.3036,-13.0028 -0.028,-0.4066 3.5549,-0.7391 7.9756,-0.7391 h 8.0022 v 4.4215 m 50.16,5.8007 c -4.1218,11.6088 -4.0841,11.6015 -7.4348,1.0352 -1.3612,-4.3069 -2.7984,-8.5992 -3.1765,-9.5384 -0.6429,-1.5157 0.031,-1.7007 6.7653,-1.7007 h 7.4919 l -3.6306,10.2224 m 9.2463,21.3249 c 0.378,8.7436 0.9075,20.7371 1.1722,26.6561 0.5294,11.6495 0.3782,11.5311 -3.982,-2.9207 -1.4371,-4.8433 -3.3658,-11.1615 -4.2621,-14.0266 -1.2857,-4.0817 -1.3615,-5.9191 -0.5294,-8.315 0.6052,-1.7008 2.0799,-6.2813 3.2901,-10.1856 3.1389,-9.9857 3.5548,-9.1242 4.3224,8.8067 m -75.2633,-2.921 3.6684,10.9954 -2.0044,4.8875 c -1.0966,2.6991 -3.5168,8.8546 -5.404,13.6976 l -3.4413,8.803 0.605,-11.2504 c 0.3782,-6.1813 0.7565,-12.7847 0.9454,-14.6738 0,-1.8854 0.3781,-7.9302 0.3781,-13.4498 0,-12.6774 0.7186,-12.5479 5.215,0.9982 m 56.8502,6.5916 c 0,1.8856 -0.4536,4.0891 -0.9832,4.8913 -0.6807,1.0354 -0.983,-0.4435 -0.983,-4.8913 0,-4.4622 0.3781,-5.9188 0.983,-4.891 0.5296,0.8134 0.9832,3.0316 0.9832,4.891 m -41.0313,4.1558 v 8.0707 l -1.475,-3.9115 c -1.21,-3.2164 -1.2478,-4.6471 -0.3781,-8.0707 1.6639,-5.6529 1.7774,-5.3609 1.7397,3.9115 m 48.7384,19.321 c 0.8698,2.9577 1.9666,6.1333 2.4202,7.0614 0.4917,0.9243 1.3237,3.5861 1.8531,5.9487 0.5294,2.3661 1.2858,4.9985 1.6263,5.8967 0.5672,1.4421 -0.3782,1.6267 -7.4654,1.6267 h -8.1154 v -4.4105 c 0,-2.44 0.416,-5.1832 0.9454,-6.1149 0.5297,-0.9243 1.8909,-4.7839 3.0634,-8.5477 3.1766,-10.1339 3.1387,-10.0672 3.6302,-8.3148 0.3783,0.8133 1.1347,3.893 2.0045,6.847 m -48.7385,19.3174 c 0.031,0.8873 -2.496,1.2199 -9.356,1.2199 h -9.3975 l 2.723,-6.603 c 1.5125,-3.6232 3.823,-9.7528 5.1429,-13.6054 l 2.3825,-7.0059 4.2128,12.3853 c 2.3069,6.8101 4.2318,12.9325 4.2543,13.6053 m -641.8288,24.2125 v 37.6582 h -3.7437 -3.744 v 7.3389 7.3351 h 3.744 3.7437 v 9.2945 9.2907 h -11.2579 -11.2543 v -54.2879 -54.292 h 11.2543 11.2579 v 37.6625 m 640.5282,-9.0508 c -0.3782,0.6656 -2.9499,6.8101 -5.8543,13.6386 l -5.3018,12.4038 -2.8364,-7.0246 c -1.5505,-3.8743 -3.6683,-9.2353 -4.6513,-11.923 -1.021,-2.6987 -2.1555,-5.6639 -2.5338,-6.6031 -0.6428,-1.5526 0.3783,-1.7005 10.5056,-1.7005 8.6071,0 11.0954,0.3698 10.6681,1.2199 m 56.941,1.9595 c -0.7564,1.7378 -2.1557,5.2721 -3.0635,7.8342 -1.9662,5.5087 -2.7603,5.3017 -5.3129,-1.5158 -3.9141,-10.3482 -4.1941,-9.5163 3.2521,-9.5163 h 6.5537 l -1.3993,3.1795 m 7.8659,17.3617 c 0.9453,13.3132 2.2691,35.6658 2.0798,35.9171 0,0 -1.8906,-4.4993 -4.0008,-10.2706 -2.1177,-5.7712 -4.451,-11.6494 -5.1733,-13.0654 -1.0967,-2.1812 4.9425,-23.5874 6.2359,-22.0792 0,0 0.454,4.3923 0.832,9.4981 m -20.0126,2.4398 c 2.3068,4.8617 2.231,7.0355 -0.4917,12.7181 -0.5297,1.0723 -1.5884,3.7156 -2.3825,5.8711 -1.3237,3.6601 -1.4369,2.8838 -1.4369,-12.718 0,-15.6721 0,-16.404 1.4369,-12.7179 0.7941,2.1443 2.0798,5.235 2.8362,6.8467 m -64.285,9.1098 c 2.8743,7.7749 2.912,8.263 1.3992,11.3945 -0.8697,1.8116 -1.588,3.6229 -1.588,4.0409 0,0.7393 -1.7397,4.6769 -5.3135,12.1375 -1.2856,2.6619 -1.5503,2.8838 -1.2102,0.9611 0.3782,-1.3307 0.681,-8.3849 1.021,-15.6495 0.6809,-15.0474 1.6639,-24.6524 2.3068,-22.5008 0.3782,0.8135 1.7775,5.128 3.4417,9.5977 m 20.7802,8.2557 v 18.8292 l -1.9664,-4.891 c -1.059,-2.6992 -2.3448,-5.5643 -2.8365,-6.3888 -2.7604,-4.7803 -2.7985,-9.2832 0,-15.1321 0.9833,-2.1444 2.3825,-5.5642 3.1012,-7.579 1.9287,-5.3424 1.9287,-5.3608 1.8909,15.1617 m 56.0636,13.9382 c 0.5294,1.0719 2.3446,5.5861 3.9819,10.0264 1.6262,4.4402 3.7062,9.4018 4.5418,11.0062 l 1.5505,2.9207 h -13.527 c -16.6017,0 -16.5299,0.9614 -2.4961,-33.7472 l 1.1726,-2.9206 1.8909,5.3793 c 1.0587,2.9578 2.3445,6.2591 2.8739,7.3352 m -64.508,11.2685 c 5.2941,14.2414 5.9447,12.8326 -5.7633,12.4924 l -9.5073,-0.3696 5.1243,-12.3924 c 2.8362,-6.8177 5.2413,-12.2783 5.3928,-12.1305 0,0 2.2687,5.6826 4.7535,12.315 m -633.3729,33.4848 v 10.5146 h -3.7441 -3.7438 v 26.4119 26.412 h -4.0427 -4.0538 l 0.3783,7.0913 0.3781,7.091 7.5065,0.4804 7.5028,0.4806 v 23.2289 23.2327 h -11.258 -11.2543 v -67.7383 -67.7383 h 11.2543 11.258 v 10.5146 m 641.8669,-4.6361 c 0,1.368 -2.3068,7.8453 -5.1129,14.4261 -5.0108,11.7307 -6.8941,15.1543 -6.8941,12.5629 0,-0.7027 -0.6429,-2.6622 -1.3993,-4.3554 -0.7942,-1.7005 -3.2523,-7.2685 -5.5211,-12.3743 -2.269,-5.1056 -4.5646,-10.0634 -5.1055,-11.0024 -0.9075,-1.5899 0,-1.7005 11.5265,-1.7005 h 12.5176 v 2.4398 m 63.6384,5.1243 c -1.8155,4.1665 -4.3527,10.0078 -5.6233,12.9621 -4.2622,9.9857 -4.4133,9.812 -16.821,-19.7498 -0.3783,-0.4439 5.5326,-0.7764 12.7176,-0.7764 h 13.0469 l -3.3278,7.5789 m -89.6718,13.4499 c 1.7775,4.3035 4.1224,10.0265 5.1735,12.718 1.0592,2.6991 2.3825,5.8305 2.9876,6.984 1.1346,2.1811 -0.832,8.1779 -6.6444,20.4043 -1.2856,2.6988 -3.5547,7.9523 -5.0938,11.6901 -3.7441,9.154 -3.7819,8.7438 -1.9667,-24.8075 0.8699,-16.1305 1.5884,-30.7559 1.5884,-32.4865 0,-3.9816 0,-3.9041 3.9821,5.4976 m 72.9601,24.3195 c -1.2477,3.0319 -4.5418,10.6331 -6.6632,15.2987 -0.8318,1.8855 -1.0966,-2.4771 -1.1346,-19.0771 l -0.031,-21.517 4.5417,11.1097 c 4.1637,10.193 4.4323,11.3574 3.2902,14.1857 m 22.5351,-2.8097 c 0.3781,9.6828 0.9075,19.5946 1.1722,22.0087 0.454,3.8266 0,2.9948 -4.1332,-6.3588 -2.5336,-5.9153 -4.9731,-11.1985 -5.3927,-11.7382 -1.6262,-2.1075 -1.8531,-4.2555 -0.7186,-6.4848 0.6805,-1.257 2.5714,-5.6936 4.1712,-9.8197 3.7854,-9.579 4.0842,-8.8137 4.8859,12.3928 m -69.5302,0.7394 v 12.9621 l -2.1934,-5.5642 c -1.2102,-3.0683 -2.496,-5.8598 -2.8741,-6.2222 -0.3783,-0.3698 0.4159,-3.0686 1.7774,-6.0446 1.3615,-2.9948 2.4582,-6.008 2.4582,-6.7398 0,-0.7396 0.3783,-1.3311 0.4913,-1.3311 0.3783,0 0.4541,5.8302 0.4164,12.9584 m 58.654,23.9462 c 2.1178,5.2532 4.2316,10.1076 4.7499,10.7806 0.7562,0.9611 -1.2481,1.2201 -9.1028,1.2201 h -10.0555 l 2.307,-5.627 c 8.0512,-19.739 7.011,-19.1917 12.1166,-6.3778 m -67.1403,-4.3809 c 1.0211,2.8468 3.0631,7.7749 4.5341,11.0063 l 2.6851,5.8673 -9.3254,-0.3696 c -5.1321,0 -9.3333,-0.5916 -9.3333,-0.9246 0,-1.2569 8.5124,-20.7367 9.0533,-20.7443 0.3782,0 1.3993,2.2925 2.3826,5.1244 m -882.9536,13.9379 c 0,12.5518 0,13.2063 -2.0044,13.2063 -1.7393,0 -2.004,0.6653 -2.004,4.8912 0,4.2367 0.3781,4.8911 2.004,4.8911 1.475,0 2.0044,0.6655 2.0044,2.44 0,2.2922 -0.3782,2.4403 -5.003,2.4403 h -5.0033 v -20.5412 -20.5448 h 5.0033 5.003 v 13.206 m 1504.8601,0.5545 c 0,9.8382 -0.3781,13.5574 -1.0964,13.0767 -1.5505,-0.9242 -2.8743,1.4422 -2.8743,5.2904 -0.028,2.4404 0.4916,3.4015 1.9667,3.786 4.7422,1.2199 2.4579,5.176 -2.9876,5.176 h -5.0033 v -20.5412 -20.5446 h 5.0033 5.0032 v 13.7567 m -614.3511,16.001 c 0,0.3698 -1.059,2.5511 -2.3824,5.1353 -1.3238,2.5881 -4.0617,8.47 -6.1226,13.0397 -3.8043,8.422 -5.5023,11.2021 -5.5023,8.9692 0,-1.0351 -4.5039,-10.8471 -10.9483,-23.8871 l -1.8151,-3.66 h 13.3875 c 7.3549,0 13.3793,0 13.3793,0.4069 m 69.0388,0 c 0,0.3694 -2.0801,4.7616 -4.595,10.0263 -2.5338,5.2722 -5.2905,11.2689 -6.1527,13.3504 l -1.5504,3.7671 -3.7441,-7.5308 c -3.1765,-6.3219 -5.5135,-11.4464 -8.6524,-18.8403 -0.3781,-0.9246 2.3825,-1.2202 12.0978,-1.2202 6.943,0 12.6156,0.3698 12.6156,0.4435 m -868.4961,12.2968 c 0,9.5531 -0.3779,11.875 -1.5125,12.3334 -1.0209,0.3696 -1.5125,1.9226 -1.5125,4.8615 0,3.1799 0.3781,4.2925 1.5125,4.2925 0.8319,0 1.5125,0.8874 1.5125,1.9594 0,1.6637 -0.6806,1.9596 -4.5036,1.9596 h -4.5041 v -18.5855 -18.5851 h 4.5041 4.5036 v 11.7678 m 773.8027,13.4279 6.6139,14.9361 -3.842,8.0523 c -2.1178,4.4329 -5.9941,12.8031 -8.6262,18.6038 -2.6473,5.7935 -4.8822,10.4186 -5.003,10.2707 0,-0.3697 2.5714,-53.2308 3.4413,-66.7104 0,-1.5529 0.6428,-0.4809 7.4233,14.8475 m 101.0582,18.8218 c 0.7187,13.7238 1.21,25.0516 1.1347,25.1958 0,0 -3.3279,-6.6512 -7.1856,-15.0806 l -7.0111,-15.3391 3.2147,-6.9247 c 1.7773,-3.808 4.3147,-9.6456 5.6117,-12.9619 2.8363,-7.2279 2.4582,-9.5164 4.2356,25.1105 m -28.9263,-14.1856 c 4.3112,9.1687 4.2923,9.4312 -1.8151,22.0124 l -4.5229,9.2908 v -22.9885 c 0,-20.0827 0,-22.5559 1.3235,-19.5615 0.7186,1.8856 2.9877,6.9432 4.9957,11.2468 m -936.9861,7.7085 c 0,18.1453 0,18.988 -2.0044,19.4761 -1.6261,0.4066 -2.0043,1.3311 -2.0043,5.0098 0,3.8338 0.3782,4.4883 2.0043,4.4883 1.5505,0 2.0044,0.6653 2.0044,2.8833 0,2.1074 -0.4916,2.8469 -1.7397,2.8469 -0.9453,-0.031 -3.2143,0.3699 -4.9993,0.6655 l -3.2523,0.7394 v -27.5063 -27.5138 h 5.0033 5.0033 v 18.9549 m 1504.8614,-17.979 c 0,0.5543 -2.269,0.9612 -5.0033,0.9612 -2.7607,0 -5.0033,-0.4437 -5.0033,-0.9612 0,-0.5545 2.2314,-0.9614 5.0033,-0.9614 2.7607,0 5.0033,0.4437 5.0033,0.9614 m -613.4322,20.297 c 0,10.0857 -0.3782,17.6869 -0.6429,16.8736 -0.3781,-0.8135 -2.0798,-4.6656 -3.9216,-8.5772 -1.8528,-3.9114 -3.3656,-7.5421 -3.3656,-8.0596 0,-0.9983 7.3213,-18.5188 7.7524,-18.556 0,0 0.3782,8.2335 0,18.3192 m -1210.6144,-11.9822 v 5.3792 h -7.7525 -7.756 l 0.3782,-5.3792 0.3782,-5.3792 h 7.4043 7.4123 v 5.3792 m 69.201,0 0.3781,5.3792 h -7.7561 -7.7524 v -5.3792 -5.3792 h 7.4121 7.4046 l 0.3781,5.3792 m 23.8549,0 v 5.3792 h -8.0059 -8.0059 v -5.3792 -5.3792 h 8.0059 8.0059 v 5.3792 m 23.0115,0 v 5.3792 h -8.0059 -8.0019 v -5.3792 -5.3792 h 8.0019 8.0059 v 5.3792 m 23.0118,0 v 5.3792 h -7.7526 -7.7562 v -5.3792 -5.3792 h 7.7562 7.7526 v 5.3792 m 23.1741,0 0.3781,5.3792 h -8.002 -8.0058 v -5.3792 -5.3684 h 7.6654 7.6541 l 0.3782,5.3794 m 23.855,0 v 5.3791 h -8.2554 -8.2554 l 0.3782,-5.3791 0.3781,-5.3794 h 7.9036 7.915 v 5.3794 m 23.0118,0 v 5.3791 h -8.0022 -8.0058 v -5.3791 -5.3794 h 8.0058 8.0022 v 5.3794 m 201.1179,26.8038 v 10.6624 l -4.5041,0.3697 -4.5039,0.3699 v -11.0063 -11.0138 h 4.5039 4.5041 v 10.6627 m 158.589,1.6264 v 10.3522 l -11.2579,-0.3699 -11.2542,-0.3697 v -10.0266 -10.0264 h 11.2542 11.2579 v 10.3481 m 1370.2851,3.3274 c 0,8.0411 -0.3782,9.7825 -1.5127,9.7825 -1.0591,0 -1.5127,1.0352 -1.5127,3.4383 0,2.403 0.4536,3.4385 1.5127,3.4385 0.8319,0 1.5127,0.8873 1.5127,1.9592 0,1.4421 -0.6808,1.9597 -2.496,1.9597 h -2.496 v -15.1619 -15.1617 h 2.496 2.496 v 9.7825 m -666.3229,7.0908 4.7648,10.5183 h -11.3261 -11.3261 l 5.661,-12.729 c 4.8824,-10.9656 5.7822,-12.4222 6.5651,-10.5144 0.4917,1.2198 3.0253,6.9466 5.6613,12.7251 m -75.1008,-11.8638 c 0,0.5544 1.1345,3.4013 2.496,6.3293 1.3992,2.9578 2.496,5.5567 2.496,5.8083 0,0.3696 1.0966,2.6618 2.4203,5.3533 l 2.4202,4.8912 h -10.8761 -10.8685 l 3.0632,-7.0946 c 1.7017,-3.9006 3.9214,-8.9397 4.9614,-11.1986 1.0589,-2.2553 1.891,-4.5883 1.891,-5.1832 0,-0.5917 0.4536,-0.8135 0.983,-0.4807 0.5675,0.3698 0.9834,1.0352 0.9834,1.5895 m 741.4233,35.0968 c 0,3.512 -0.3781,3.9152 -2.4959,3.9152 -2.2687,0 -2.4957,-0.4067 -2.4957,-3.9152 0,-3.5121 0.3781,-3.9114 2.4957,-3.9114 2.269,0 2.4959,0.4066 2.4959,3.9114 m -657.3753,2.4769 c 0,0.4066 -2.0422,4.9394 -8.2477,18.3118 l -3.0632,6.6031 -4.383,-9.5387 c -2.4205,-5.2423 -5.2113,-11.0726 -6.2134,-12.9619 l -1.8153,-3.4384 11.8595,0.3698 c 6.5233,0 11.867,0.4806 11.867,0.7025 m -80.6066,9.017 c -2.4206,5.2427 -4.4322,9.9788 -4.4551,10.5146 -0.029,0.5547 -0.8698,2.0336 -1.8909,3.3275 l -1.8528,2.3663 -1.2858,-3.8155 c -0.7187,-2.1074 -2.7985,-6.8396 -4.6933,-10.5256 -1.8908,-3.6973 -3.8419,-7.7567 -4.3452,-9.0505 l -0.9075,-2.3292 h 11.9048 11.9087 l -4.4133,9.5384 m -20.8713,11.7791 c 2.4203,5.5457 4.4208,10.2704 4.4208,10.5144 0,0.3696 -3.1386,0.4438 -7.0035,0.4438 h -7.0037 v -5.7231 c 0,-3.1426 0.3782,-9.7531 0.6429,-14.6923 l 0.6428,-8.9692 1.9286,4.1741 c 1.0588,2.2921 3.9217,8.7068 6.3533,14.2447 m 73.9095,-6.6435 c 2.042,4.577 4.6552,10.3 5.7858,12.7181 5.3208,11.4128 5.8618,8.8212 -7.7637,36.6823 l -2.3826,4.8916 -0.032,-31.7139 c -0.028,-17.4427 0,-31.5287 0.3783,-31.3032 0.3781,0.3695 2.0421,4.1592 4.0917,8.7251 m -43.4743,8.3148 v 9.2945 h -4.073 c -4.7118,0 -4.7118,0 0.3783,-10.4777 1.5885,-3.3273 2.8741,-6.5326 2.8741,-7.0911 0,-0.5544 0.3781,-0.9981 0.4917,-0.9981 0.3781,0 0.4914,4.1852 0.4914,9.2907 m 72.673,5.5456 c -0.8322,5.0207 -1.8531,11.328 -2.2314,14.0195 l -0.6806,4.8912 -1.7774,-3.9151 c -2.3825,-5.2242 -2.3067,-6.4071 0.4536,-12.4408 1.3238,-2.8469 2.9877,-6.8099 3.7063,-8.8028 2.0421,-5.7046 2.231,-3.6971 0.5672,6.248 m -1018.8145,25.3177 6.1038,1.0354 -0.3781,26.8408 -0.3783,26.8409 h -10.4754 -10.4751 v -29.2476 -29.2479 l 4.6513,1.3681 c 2.5717,0.7394 7.3934,1.8485 10.7553,2.403 m 1012.1508,11.1985 c 2.1937,6.3775 0.5298,7.886 -8.1643,7.3389 l -7.6959,-0.4808 4.6931,-10.3666 4.6816,-10.3705 2.723,5.4793 c 1.5126,3.0315 3.1766,6.799 3.7438,8.4108 m -214.2935,8.3147 c 0,1.7377 -0.7942,2.921 -1.5881,2.921 -0.7564,0 -1.0969,-0.5548 -0.7942,-1.2202 0.3781,-0.6653 0.8698,-1.9965 1.21,-2.9206 0.9456,-2.5881 1.4373,-2.0705 1.1723,1.2198"
       stroke="none"
       fill="#000000"
       fill-rule="evenodd"
       style="fill:#ffffff;fill-opacity:1;stroke-width:3;stroke:#ffffff;stroke-opacity:1;stroke-dasharray:none" /></g></svg>
